<?xml version="1.0" encoding="utf-8"?>
<svg viewBox="214.599 24.451 273 274.001" width="273" height="274.001" xmlns="http://www.w3.org/2000/svg">
  <path fill-rule="evenodd" clip-rule="evenodd" d="M144.489 35.6655C167.39 12.6888 207.293 10.4041 249.061 28.7244C255.908 31.727 261.379 37.2112 264.542 44.0037L264.552 44.0249C269.066 53.3684 282.871 59.5742 293.165 49.2427C306.005 36.3525 295.592 18.2482 280.328 18.7866C280.115 18.7943 279.904 18.804 279.694 18.8155C272.414 19.2073 265.137 17.8353 258.503 14.7999C209.395 -7.65966 161.17 -4.51428 132.808 23.9427C95.6615 61.2125 102.601 131.974 149.307 192.197C150.938 194.297 153.373 195.395 155.835 195.395C157.607 195.395 159.394 194.825 160.901 193.648C164.501 190.837 165.149 185.629 162.349 182.016C120.833 128.487 113.322 66.9379 144.489 35.6655Z" fill="#009EFF" transform="matrix(1, 0, 0, 1, 105.59938, 24.451622)"/>
  <path fill-rule="evenodd" clip-rule="evenodd" d="M 484.872 185.151 C 477.8 149.871 457.568 114.05 427.903 84.286 C 425.849 82.225 423.733 80.18 421.609 78.2 C 418.686 75.473 414.179 74.935 410.952 77.291 C 406.585 80.479 406.384 86.642 410.133 90.127 C 412.185 92.038 414.233 94.016 416.22 96.009 C 443.608 123.488 462.236 156.308 468.677 188.42 C 474.868 219.31 468.944 245.687 451.993 262.695 C 436.918 277.82 413.88 284.296 387.106 280.934 C 364.76 278.127 341.067 268.693 318.929 253.984 C 312.156 249.486 308.404 242.098 306.508 234.172 C 304.668 226.477 297.495 220.072 290.774 219.765 C 279.804 219.266 270.061 225.834 270.389 238.441 C 270.579 245.71 275.052 253.747 289.549 257.437 C 299.625 260.003 307.287 266.17 309.559 267.689 C 339.971 288.011 372.049 298.454 400.606 298.452 C 425.42 298.45 447.583 290.563 463.674 274.418 C 484.664 253.359 492.192 221.655 484.872 185.151 Z" fill="#009EFF"/>
  <path fill-rule="evenodd" clip-rule="evenodd" d="M 391.375 197.545 L 371.404 197.545 L 334.671 150.582 L 334.671 197.545 L 314.699 197.545 L 314.699 120.865 L 334.671 120.865 L 371.404 167.772 L 371.404 120.865 L 391.375 120.865 L 391.375 197.545 Z M 401.213 110.215 C 357.106 66.168 299.385 52.396 272.291 79.452 C 245.197 106.508 258.988 164.148 303.095 208.195 C 347.204 252.242 404.925 266.014 432.019 238.958 C 459.114 211.902 445.322 154.262 401.213 110.215 Z" fill="#009EFF"/>
</svg>